TITLE ""
FILE "1Q_t_0810-0819.mp3" MP3
  TRACK 01 AUDIO
    TITLE "1Q_t_0810-0819_01"
    INDEX 01 00:00:00
  TRACK 02 AUDIO
    TITLE "1Q_t_0810-0819_02"
    INDEX 01 00:00:08
  TRACK 03 AUDIO
    TITLE "1Q_t_0810-0819_03"
    INDEX 01 00:01:06
  TRACK 04 AUDIO
    TITLE "1Q_t_0810-0819_04"
    INDEX 01 00:01:14
  TRACK 05 AUDIO
    TITLE "1Q_t_0810-0819_05"
    INDEX 01 00:03:30
  TRACK 06 AUDIO
    TITLE "1Q_t_0810-0819_06"
    INDEX 01 00:03:38
  TRACK 07 AUDIO
    TITLE "1Q_t_0810-0819_07"
    INDEX 01 00:10:36
  TRACK 08 AUDIO
    TITLE "1Q_t_0810-0819_08"
    INDEX 01 00:11:08
  TRACK 09 AUDIO
    TITLE "1Q_t_0810-0819_09"
    INDEX 01 00:12:19
  TRACK 10 AUDIO
    TITLE "1Q_t_0810-0819_10"
    INDEX 01 00:12:27
  TRACK 11 AUDIO
    TITLE "1Q_t_0810-0819_11"
    INDEX 01 00:14:12
  TRACK 12 AUDIO
    TITLE "1Q_t_0810-0819_12"
    INDEX 01 00:14:18
  TRACK 13 AUDIO
    TITLE "1Q_t_0810-0819_13"
    INDEX 01 00:19:45
  TRACK 14 AUDIO
    TITLE "1Q_t_0810-0819_14"
    INDEX 01 00:20:15
  TRACK 15 AUDIO
    TITLE "1Q_t_0810-0819_15"
    INDEX 01 00:21:26
  TRACK 16 AUDIO
    TITLE "1Q_t_0810-0819_16"
    INDEX 01 00:21:36
  TRACK 17 AUDIO
    TITLE "1Q_t_0810-0819_17"
    INDEX 01 00:24:13
  TRACK 18 AUDIO
    TITLE "1Q_t_0810-0819_18"
    INDEX 01 00:24:21
  TRACK 19 AUDIO
    TITLE "1Q_t_0810-0819_19"
    INDEX 01 00:29:34
  TRACK 20 AUDIO
    TITLE "1Q_t_0810-0819_20"
    INDEX 01 00:30:04
  TRACK 21 AUDIO
    TITLE "1Q_t_0810-0819_21"
    INDEX 01 00:31:09
  TRACK 22 AUDIO
    TITLE "1Q_t_0810-0819_22"
    INDEX 01 00:31:17
  TRACK 23 AUDIO
    TITLE "1Q_t_0810-0819_23"
    INDEX 01 00:39:59
  TRACK 24 AUDIO
    TITLE "1Q_t_0810-0819_24"
    INDEX 01 00:39:67
  TRACK 25 AUDIO
    TITLE "1Q_t_0810-0819_25"
    INDEX 01 00:45:60
  TRACK 26 AUDIO
    TITLE "1Q_t_0810-0819_26"
    INDEX 01 00:46:38
  TRACK 27 AUDIO
    TITLE "1Q_t_0810-0819_27"
    INDEX 01 00:48:07
  TRACK 28 AUDIO
    TITLE "1Q_t_0810-0819_28"
    INDEX 01 00:48:17
  TRACK 29 AUDIO
    TITLE "1Q_t_0810-0819_29"
    INDEX 01 00:49:60
  TRACK 30 AUDIO
    TITLE "1Q_t_0810-0819_30"
    INDEX 01 00:49:66
  TRACK 31 AUDIO
    TITLE "1Q_t_0810-0819_31"
    INDEX 01 00:56:40
  TRACK 32 AUDIO
    TITLE "1Q_t_0810-0819_32"
    INDEX 01 00:57:12
  TRACK 33 AUDIO
    TITLE "1Q_t_0810-0819_33"
    INDEX 01 00:58:33
  TRACK 34 AUDIO
    TITLE "1Q_t_0810-0819_34"
    INDEX 01 00:58:43
  TRACK 35 AUDIO
    TITLE "1Q_t_0810-0819_35"
    INDEX 01 01:01:73
  TRACK 36 AUDIO
    TITLE "1Q_t_0810-0819_36"
    INDEX 01 01:02:06
  TRACK 37 AUDIO
    TITLE "1Q_t_0810-0819_37"
    INDEX 01 01:07:32
  TRACK 38 AUDIO
    TITLE "1Q_t_0810-0819_38"
    INDEX 01 01:08:02
  TRACK 39 AUDIO
    TITLE "1Q_t_0810-0819_39"
    INDEX 01 01:09:10
  TRACK 40 AUDIO
    TITLE "1Q_t_0810-0819_40"
    INDEX 01 01:09:21
  TRACK 41 AUDIO
    TITLE "1Q_t_0810-0819_41"
    INDEX 01 01:11:53
  TRACK 42 AUDIO
    TITLE "1Q_t_0810-0819_42"
    INDEX 01 01:11:61
  TRACK 43 AUDIO
    TITLE "1Q_t_0810-0819_43"
    INDEX 01 01:17:66
  TRACK 44 AUDIO
    TITLE "1Q_t_0810-0819_44"
    INDEX 01 01:18:40
  TRACK 45 AUDIO
    TITLE "1Q_t_0810-0819_45"
    INDEX 01 01:19:67
  TRACK 46 AUDIO
    TITLE "1Q_t_0810-0819_46"
    INDEX 01 01:19:75
  TRACK 47 AUDIO
    TITLE "1Q_t_0810-0819_47"
    INDEX 01 01:23:08
  TRACK 48 AUDIO
    TITLE "1Q_t_0810-0819_48"
    INDEX 01 01:23:16
  TRACK 49 AUDIO
    TITLE "1Q_t_0810-0819_49"
    INDEX 01 01:27:39
  TRACK 50 AUDIO
    TITLE "1Q_t_0810-0819_50"
    INDEX 01 01:28:11
  TRACK 51 AUDIO
    TITLE "1Q_t_0810-0819_51"
    INDEX 01 01:29:34
  TRACK 52 AUDIO
    TITLE "1Q_t_0810-0819_52"
    INDEX 01 01:29:45
  TRACK 53 AUDIO
    TITLE "1Q_t_0810-0819_53"
    INDEX 01 01:36:06
  TRACK 54 AUDIO
    TITLE "1Q_t_0810-0819_54"
    INDEX 01 01:36:14
  TRACK 55 AUDIO
    TITLE "1Q_t_0810-0819_55"
    INDEX 01 01:42:23
  TRACK 56 AUDIO
    TITLE "1Q_t_0810-0819_56"
    INDEX 01 01:42:68
  TRACK 57 AUDIO
    TITLE "1Q_t_0810-0819_57"
    INDEX 01 01:43:69
  TRACK 58 AUDIO
    TITLE "1Q_t_0810-0819_58"
    INDEX 01 01:44:02
  TRACK 59 AUDIO
    TITLE "1Q_t_0810-0819_59"
    INDEX 01 01:46:46
  TRACK 60 AUDIO
    TITLE "1Q_t_0810-0819_60"
    INDEX 01 01:46:52
  TRACK 61 AUDIO
    TITLE "1Q_t_0810-0819_61"
    INDEX 01 01:53:34
